# xmcd CD database file
#
# Track frame offsets:
#	150
#	12595
#	30265
#	45984
#	65206
#	77257
#	90641
#	108512
#	120687
#	134217
#	152194
#	166673
#	177894
#	196262
#	212294
#	226444
#	242384
#	252152
#	267047
#	281841
#	296613
#	314041
#
# Disc length: 4451 seconds
#
# Revision: 1
# Processed by: cddbd v1.5.2PL0 Copyright (c) Steve Scherf et al.
# Submitted via: CDex 1.70beta2
#
DISCID=2f116116
DTITLE=Linda Ronstadt - The Collection 2
DYEAR=2011
DGENRE=Country
TTITLE0=Heat Wave
TTITLE1=Blue Bayou
TTITLE2=All My Life
TTITLE3=Love Has No Pride
TTITLE4=I Can't Let Go
TTITLE5=The Moon Is A Harsh Mistress
TTITLE6=Someone To Lay Down Beside Me
TTITLE7=Hasten Down The Wind
TTITLE8=Por Un Amour (For A Love)
TTITLE9=The Waiting
TTITLE10=I Will Never Marry
TTITLE11=Get Closer
TTITLE12=Many Rivers To Cross
TTITLE13=After The Gold Rush
TTITLE14=Heart Like A Wheel
TTITLE15=Frenesi
TTITLE16=Dedicated To The One I Love
TTITLE17=Winter Light
TTITLE18=Don't Talk (Put Your Head On My Shoulder)
TTITLE19=Be My Baby
TTITLE20=What's New
TTITLE21=Long Long Time
EXTD=YEAR: 2011
EXTT0=
EXTT1=
EXTT2=
EXTT3=
EXTT4=
EXTT5=
EXTT6=
EXTT7=
EXTT8=
EXTT9=
EXTT10=
EXTT11=
EXTT12=
EXTT13=
EXTT14=
EXTT15=
EXTT16=
EXTT17=
EXTT18=
EXTT19=
EXTT20=
EXTT21=
PLAYORDER=
